<?xml version="1.0" encoding="UTF-8"?>
<svg id="Capa_2" data-name="Capa 2" xmlns="http://www.w3.org/2000/svg" viewBox="0 0 551.91 548.77">
  <defs>
    <style>
      .cls-1 {
        fill: #fff;
      }
    </style>
  </defs>
  <g id="Capa_1-2" data-name="Capa 1">
    <path class="cls-1" d="m276.09,0c12.94,1.3,25.75,2.66,38.56,3.84,16.69,1.54,32.54,6.5,48.38,11.58,15.79,5.06,30.74,12.01,45.06,20.27,9.3,5.37,18.62,10.8,27.42,16.95,8.65,6.05,16.83,12.83,24.88,19.68,5.97,5.07,11.48,10.69,17.05,16.21,10.65,10.58,19.61,22.54,28.1,34.89,20.86,30.36,34.87,63.63,41.82,99.75,4.47,23.25,5.74,46.72,3.4,70.41-2.5,25.19-7.09,49.85-15.9,73.64-13.17,35.53-33.45,66.55-59.24,94.16-35.46,37.95-78.58,63.14-128.28,77.35-19.71,5.64-39.86,8.82-60.39,9.76-52.68,2.41-101.6-10.84-146.77-37.06C67.94,469.5,22.96,407.02,5.12,325.5c-5.73-26.19-6.14-52.96-3.74-79.74,1.93-21.48,7-42.17,14.35-62.37,7.7-21.16,17.96-40.97,30.61-59.62,10.87-16.04,23.12-30.89,37.04-44.32,12.36-11.92,25.64-22.78,40.24-31.83,10.75-6.66,21.75-13,33.02-18.73,15.16-7.71,30.96-14.1,47.44-18.37,10.68-2.76,21.56-4.96,32.47-6.5,13.09-1.85,26.31-2.72,39.52-4.02Zm3.97,530.35c5.05-.41,14.51-1,23.93-1.99,29.77-3.12,57.89-11.95,84.5-25.43,53.33-27.01,93.91-67.06,120.03-120.89,19.73-40.66,27.4-83.83,23.69-129.08-2.01-24.47-7.08-48.11-16.48-70.7-26.08-62.67-70.27-108.22-131.23-137.74-28.91-14-59.54-21.66-91.44-23.81-21.71-1.46-43.36-.12-64.83,4.09-46.43,9.09-87.26,29.57-122.73,60.53-26.54,23.17-47.54,50.78-62.69,82.75-12.63,26.66-20.64,54.56-22.89,83.98-1.28,16.7-.81,33.4,1.09,50.1,2.97,26.14,9.6,51.22,20.72,75.04,22.89,49.04,57.64,87.6,103.82,115.68,39.9,24.25,83.17,37.29,134.51,37.5Z"/>
    <path class="cls-1" d="m348.46,51.29c4.42,1.45,8.53,2.52,12.42,4.13,5.13,2.12,10.23,4.4,15.1,7.06,8.17,4.47,16.15,9.27,24.19,13.98,2.57,1.51,4.95,3.35,7.59,4.72,2.97,1.54,4.29,3.64,4.29,7.06-.07,59.87-.05,119.74-.06,179.61,0,63.87-.03,127.74.06,191.61,0,3.9-1.49,6.19-4.55,8.56-7.71,5.98-16.37,10.18-24.98,14.51-6.46,3.25-12.89,6.57-19.43,9.66-3.81,1.8-7.79,3.22-11.72,4.75-.87.34-1.84.42-3.16.7,0-1.5,0-2.6,0-3.71,0-15.75.03-31.5-.04-47.25,0-2.32.7-3.63,2.72-5.1,6.47-4.69,13.2-9.27,18.72-14.96,9.82-10.13,18.22-21.37,23.7-34.67,6.25-15.15,8.82-30.86,7.12-46.96-.92-8.64-3.69-17.23-6.7-25.45-3.52-9.61-9.13-18.13-16.95-25.08-1.35-1.2-2.03-3.59-2.24-5.52-.36-3.31-.1-6.69-.1-10.27h-197.22c0,3.23-.39,6.6.09,9.84.76,5.12-3.03,7.77-5.68,10.68-5.83,6.42-9.77,13.91-12.91,21.72-4.74,11.79-7.91,24.18-6.83,36.97.72,8.6,2.46,17.24,4.9,25.52,2.15,7.32,5.47,14.4,9.05,21.18,5.92,11.2,13.18,21.44,23.99,28.67,4.47,2.99,8.74,6.27,13.04,9.5.61.46,1.27,1.33,1.28,2.02.07,17.47.06,34.95.06,53.16-2.43-.71-4.43-1.11-6.28-1.87-7.31-3.03-14.7-5.92-21.82-9.36-6.09-2.95-11.91-6.46-17.72-9.94-5.84-3.49-11.56-7.2-17.24-10.95-.76-.5-1.19-1.77-1.41-2.77-.24-1.07-.05-2.24-.05-3.36,0-123.87,0-247.73-.07-371.6,0-3.13,1.03-4.93,3.69-6.55,6.63-4.03,12.83-8.82,19.63-12.53,7.59-4.14,15.62-7.46,23.5-11.05,4.47-2.04,8.99-3.97,13.55-5.78,1.09-.43,2.45-.2,4.23-.31,0,1.5,0,2.82,0,4.13,0,38-.03,75.99.05,113.99,0,2.86-1.05,4.43-3.42,5.92-10.22,6.44-19.34,14.01-25.13,24.99-1.98,3.74-5.11,6.92-6.82,10.75-1.98,4.41-3.4,9.19-4.29,13.95-.9,4.83-.84,9.83-1.23,15.06h225.59c-.35-4.46-.5-8.87-1.06-13.22-1.02-7.92-3.91-15.25-7.69-22.22-5.5-10.13-12.88-18.72-22.08-25.68-2.26-1.71-4.96-2.86-7.17-4.63-1.23-.98-2.66-2.7-2.66-4.09-.15-39-.12-77.99-.12-116.99,0-.49.09-.97.25-2.52Z"/>
    <path class="cls-1" d="m374.28,322.7c5.37,8.62,8.18,17.19,9.03,26.36,2.28,24.4-6.89,44.68-22.91,62.36-6.75,7.45-14.63,13.54-23.91,18.78.97-3.5,1.81-6.51,2.65-9.53-16.38,19.6-37.38,29.53-62.54,29.96-25.25.43-45.93-9.83-62.62-29.91.85,3.73,1.53,6.69,2.38,10.43-19.29-11.93-34.06-26.78-42.26-47.46-6.33-15.96-7.68-32.19-2.05-48.61,1.47-4.27,3.77-8.26,5.68-12.38.45.12.89.25,1.34.37,0,.86-.06,1.73.01,2.59.51,5.93.16,12.12,1.76,17.75,4.54,15.96,21.02,22.42,36.45,14.91,18.28-8.91,32.05-32.84,30.33-52.98-.27-3.18-1.28-6.3-2.03-9.83h60.98c-2.76,13.19-1.59,25.8,4.69,37.55,5.74,10.74,13.26,20.15,24.47,25.56,16.67,8.04,33.95-.88,37.25-19.12.94-5.18.82-10.56,1.26-16.78Zm-146.95,84.6c-.19,1.61-.45,2.79-.45,3.98-.02,7.75,5.27,13.92,14.51,16.24,12.87,3.24,24.34-.19,34.67-7.96,2.76,1.72,5.37,3.69,8.26,5.1,11.47,5.6,23.06,6.13,34.4-.28,6.25-3.54,8.23-8.93,6.56-16.83-1.37.68-2.71,1.16-3.84,1.94-7.17,4.91-15.13,6.44-23.56,5.18-5.07-.76-9.41-3.24-12.5-7.53-4.33-6.01-2.85-10.61,4.09-12.9,3.08-1.02,6.2-1.95,9.17-3.23,4.9-2.12,8.67-5.53,10.11-10.84,1.16-4.25,1.03-8.57-2.28-11.9-2.89-2.92-5.78.09-8.66.63-7.18,1.34-14.3,3.27-21.54,3.94-8.2.76-15.94-2.14-23.6-4.92-4.49-1.63-7,0-8.03,4.72-1.59,7.32,1.95,14.16,9.69,17.91,3.11,1.51,6.57,2.32,9.88,3.42,5.44,1.8,7.27,5.6,5.09,10.77-1.8,4.27-5.05,7.06-9.28,8.74-7.97,3.17-15.83,2.67-23.48-1.03-2.99-1.45-5.83-3.23-9.21-5.12Z"/>
    <path class="cls-1" d="m372.72,224.24h-192.93c3.7-22.64,34.99-44.15,68.67-47.35-1.83-2.92-9.24-5.3-23.84-7.49,7.32-5.59,15.27-7.37,23.36-8.74,8.54-1.44,16.6.03,24.1,4.55.34-.2.68-.41,1.02-.61-1.71-4.25-3.42-8.5-5.29-13.14h16.18c-1.65,4.62-3.17,8.87-5.03,14.05,17.85-9.43,33.35-4.73,48.62,3.48-8.04,2.05-16.34,2.98-23.55,7.78,22.14.68,40.38,9.54,55.26,25.47,5.88,6.3,10.95,13.21,13.43,22Z"/>
    <path class="cls-1" d="m316.9,318.21c4.82,5.4,9.34,6.9,13.28,4.56,2.82-1.67,4.58-4.2,3.67-7.47-.74-2.64-2.35-5.05-4.17-8.8,2.68.76,4.61.89,6.07,1.8,4.67,2.88,6.3,8.8,4.22,14.21-1.97,5.11-7.61,8.45-12.86,7.61-5.9-.94-9.91-5.47-10.2-11.9Z"/>
    <path class="cls-1" d="m236.2,318.01c.16,6.92-4.59,11.99-11.29,12.25-7.11.27-12.74-4.88-13.11-11.99-.31-5.99,3.81-10.93,10-11.32-.28,1.37-.26,2.75-.83,3.81-3.14,5.83-3.07,8.73.53,11.46,3.65,2.78,9.29,2.02,12.88-1.78.66-.7,1.17-1.55,1.83-2.44Z"/>
  </g>
</svg>