<?xml version="1.0" encoding="UTF-8"?>
<svg id="Capa_2" data-name="Capa 2" xmlns="http://www.w3.org/2000/svg" viewBox="0 0 513.62 510.29">
  <defs>
    <style>
      .cls-1 {
        fill: #fff;
      }
    </style>
  </defs>
  <g id="Capa_1-2" data-name="Capa 1">
    <g>
      <path d="m263.18,510.29c-53.62-.21-96.9-13.23-136.8-37.48-46.19-28.07-80.95-66.62-103.84-115.65-11.12-23.81-17.69-48.9-20.71-75.03C-6.19,212.85,12.37,151.25,55.75,97.23,91.56,52.63,137.71,23.31,192.93,8.36,219.43,1.19,246.5-1.26,273.79.6c48.61,3.32,92.67,19.61,132.38,47.87,41.06,29.22,71.15,67.14,90.32,113.66,9.27,22.51,15.19,45.92,16.27,70.33.57,12.96,1.26,25.99.58,38.92-1.2,23.03-6.37,45.42-14.18,67.08-17.12,47.46-46.41,86.13-86.11,116.93-33.95,26.34-72.19,43.53-114.52,51.02-13.83,2.45-27.99,3.1-35.36,3.87Zm65.99-32.78c1.12-.23,2.1-.29,2.96-.62,3.93-1.53,7.91-2.96,11.71-4.76,6.54-3.09,12.97-6.39,19.43-9.65,8.61-4.35,17.29-8.51,24.99-14.5,3.04-2.37,4.58-4.64,4.57-8.55-.07-122.49-.06-244.98-.06-367.47,0-1.75.39-3.62-.09-5.22-.53-1.75-1.49-3.79-2.91-4.76-6.68-4.58-13.46-9.03-20.43-13.13-5.81-3.42-11.87-6.45-17.95-9.39-4.5-2.18-9.15-4.08-13.83-5.83-2.61-.97-5.43-1.38-8.58-2.14,0,1.77,0,2.75,0,3.73,0,38,.02,75.99-.03,113.99,0,2.95.22,5.12,3.72,6.19,2.4.73,4.51,2.61,6.56,4.23,10.02,7.94,18.2,17.42,23.49,29.16,1.58,3.51,2.64,7.26,4.04,10.86,2.63,6.77,3.12,13.75,2.56,20.96h-225.13c.38-5.21.33-10.21,1.22-15.04.88-4.76,2.29-9.54,4.27-13.96,1.72-3.83,4.87-6.99,6.84-10.74,5.78-10.99,14.9-18.56,25.11-25,2.36-1.49,3.45-3.04,3.45-5.91-.08-38.12-.05-76.24-.05-114.37,0-1.2,0-2.4,0-3.78-1.75.1-3.11-.14-4.2.3-4.56,1.81-9.08,3.75-13.55,5.78-7.88,3.59-15.92,6.9-23.51,11.03-6.8,3.7-12.99,8.49-19.62,12.53-2.64,1.61-3.72,3.39-3.72,6.53.08,111.49.07,222.98.07,334.47,0,13-.05,26,.08,39,.02,1.48.67,3.53,1.75,4.31,4.94,3.54,10.04,6.87,15.25,9.99,6.33,3.79,12.69,7.62,19.31,10.86,7.1,3.47,14.51,6.33,21.83,9.36,1.85.77,3.85,1.18,5.64,1.72.37-.65.49-.76.49-.86.07-17.24.14-34.48.13-51.71,0-.82-.6-1.9-1.27-2.4-4.29-3.25-8.56-6.52-13.04-9.5-10.94-7.29-18.21-17.68-24.21-28.97-3.54-6.66-6.78-13.65-8.84-20.86-2.44-8.54-4.2-17.42-4.92-26.27-1.01-12.53,2.17-24.67,6.81-36.23,3.14-7.82,6.84-15.53,13.02-21.63,4.16-4.1,6.61-8.79,5.55-14.89-.33-1.88-.05-3.87-.05-5.77h197.21c0,3.56-.26,6.94.1,10.25.21,1.93.88,4.33,2.22,5.53,7.81,6.95,13.43,15.46,16.95,25.08,3.01,8.22,5.8,16.81,6.71,25.45,1.7,16.09-.86,31.8-7.11,46.96-5.48,13.31-13.88,24.55-23.69,34.68-5.52,5.7-12.25,10.27-18.71,14.97-2,1.46-2.77,2.74-2.76,5.08.07,15.87.04,31.75.05,47.62,0,.98.1,1.97.17,3.3Zm-41.75-202.14h-61c.74,3.59,1.68,6.82,2.03,10.12,2.36,21.76-15.11,45.68-30.22,52.68-6.29,2.91-12.82,4.09-19.65,2.27-10.05-2.67-16.95-11.11-18.29-22.74-.56-4.84-.49-9.76-.76-15.54-1.33,1.92-2.35,3.12-3.07,4.48-6.62,12.46-8.48,25.79-6.32,39.57,3.45,21.95,14.63,39.56,31.44,53.72,4.66,3.93,9.78,7.3,14.69,10.93.23-.24.47-.48.7-.72-.69-2.93-1.38-5.86-2.25-9.53,16.71,20.15,37.49,30.44,62.89,29.96,25.04-.47,45.94-10.43,62.29-29.78-.83,2.94-1.67,5.88-2.56,9.03.62-.19.99-.22,1.28-.4,16.93-10.13,30.22-23.66,38.58-41.7,9.27-20.01,10.17-40.15.59-60.36-.68-1.44-1.69-2.73-2.54-4.08-.61,3.99-.36,7.62-.65,11.22-1.79,21.96-21.12,34.5-41.21,22.37-9.38-5.67-16.2-14.07-21.27-23.72-6.21-11.8-7.52-24.37-4.71-37.77Zm-127.8-71.27h194.65c-14.46-29.58-37.13-45.46-70.45-47.3,8.24-4.83,16.45-5.86,24.52-7.83-15.2-8.3-30.71-12.91-48.63-3.53,1.91-5.3,3.45-9.54,5.04-13.95h-16.78c2.83,4.58,5.19,8.55,5.22,13.66-14.96-7.28-39.86-4.92-46.94,4.2,3.98.83,8.01,1.48,11.93,2.54,3.9,1.06,7.68,2.52,11.51,3.81-.11.34-.22.67-.33,1.01-32.22,2.18-55.58,17.27-69.75,47.4Zm138,94.13c.55,6.6,4.55,11,10.39,11.84,5.3.76,10.83-2.59,12.77-7.75,2.03-5.41.34-11.35-4.34-14.16-1.45-.87-3.38-.94-5.09-1.37-.2.32-.39.63-.59.95,3.09,4.95,7.33,9.99.41,14.83-3.79,2.66-8.32,1.14-13.55-4.33Zm-80.6.13c-1.33,1.2-2.62,2.74-4.24,3.76-4.15,2.61-8.42,2.27-11.36-.64-2.77-2.73-2.67-5.77.09-10.47.67-1.14.77-2.61,1.18-4.12-6.24.34-10.4,5.28-10.1,11.28.34,6.95,5.83,12.15,12.71,12.04,6.92-.11,11.79-5.13,11.73-11.86Z"/>
      <path class="cls-1" d="m329.17,477.5c-.07-1.34-.17-2.32-.17-3.3-.01-15.87.03-31.75-.05-47.62-.01-2.34.75-3.62,2.76-5.08,6.46-4.7,13.2-9.27,18.71-14.97,9.81-10.13,18.2-21.37,23.69-34.68,6.25-15.16,8.81-30.87,7.11-46.96-.91-8.64-3.7-17.23-6.71-25.45-3.52-9.62-9.14-18.13-16.95-25.08-1.34-1.2-2.01-3.6-2.22-5.53-.35-3.31-.1-6.69-.1-10.25h-197.21c0,1.9-.28,3.89.05,5.77,1.06,6.11-1.4,10.79-5.55,14.89-6.18,6.1-9.88,13.81-13.02,21.63-4.64,11.55-7.83,23.7-6.81,36.23.72,8.84,2.48,17.73,4.92,26.27,2.06,7.22,5.3,14.21,8.84,20.86,6,11.29,13.27,21.69,24.21,28.97,4.47,2.98,8.75,6.25,13.04,9.5.67.5,1.27,1.59,1.27,2.4.01,17.24-.06,34.48-.13,51.71,0,.11-.12.22-.49.86-1.79-.54-3.79-.95-5.64-1.72-7.31-3.03-14.72-5.89-21.83-9.36-6.62-3.24-12.97-7.06-19.31-10.86-5.21-3.12-10.32-6.45-15.25-9.99-1.08-.78-1.73-2.83-1.75-4.31-.13-13-.08-26-.08-39,0-111.49,0-222.98-.07-334.47,0-3.14,1.08-4.92,3.72-6.53,6.63-4.04,12.82-8.83,19.62-12.53,7.59-4.14,15.63-7.45,23.51-11.03,4.47-2.03,8.99-3.97,13.55-5.78,1.09-.43,2.45-.2,4.2-.3,0,1.39,0,2.58,0,3.78,0,38.12-.03,76.24.05,114.37,0,2.87-1.09,4.42-3.45,5.91-10.21,6.45-19.33,14.01-25.11,25-1.97,3.75-5.12,6.91-6.84,10.74-1.98,4.41-3.39,9.19-4.27,13.96-.89,4.82-.84,9.82-1.22,15.04h225.13c.56-7.21.07-14.19-2.56-20.96-1.4-3.6-2.45-7.35-4.04-10.86-5.29-11.74-13.47-21.22-23.49-29.16-2.04-1.62-4.16-3.5-6.56-4.23-3.5-1.06-3.72-3.23-3.72-6.19.05-38,.03-75.99.03-113.99,0-.98,0-1.96,0-3.73,3.16.76,5.98,1.17,8.58,2.14,4.68,1.75,9.33,3.65,13.83,5.83,6.08,2.94,12.14,5.96,17.95,9.39,6.97,4.11,13.75,8.56,20.43,13.13,1.42.97,2.38,3.02,2.91,4.76.48,1.6.09,3.47.09,5.22,0,122.49-.02,244.98.06,367.47,0,3.91-1.53,6.18-4.57,8.55-7.7,6-16.38,10.15-24.99,14.5-6.45,3.26-12.89,6.57-19.43,9.65-3.81,1.8-7.78,3.23-11.71,4.76-.86.34-1.84.4-2.96.62Z"/>
      <path class="cls-1" d="m287.42,275.36c-2.81,13.41-1.5,25.97,4.71,37.77,5.08,9.65,11.89,18.06,21.27,23.72,20.09,12.13,39.41-.41,41.21-22.37.29-3.59.04-7.23.65-11.22.86,1.36,1.86,2.64,2.54,4.08,9.58,20.21,8.68,40.36-.59,60.36-8.36,18.04-21.65,31.57-38.58,41.7-.29.17-.67.21-1.28.4.89-3.15,1.73-6.09,2.56-9.03-16.35,19.35-37.25,29.31-62.29,29.78-25.39.48-46.17-9.82-62.89-29.96.87,3.67,1.56,6.6,2.25,9.53-.23.24-.47.48-.7.72-4.91-3.63-10.03-7-14.69-10.93-16.81-14.16-27.99-31.77-31.44-53.72-2.17-13.79-.3-27.11,6.32-39.57.72-1.36,1.74-2.56,3.07-4.48.26,5.79.2,10.7.76,15.54,1.33,11.62,8.24,20.07,18.29,22.74,6.83,1.81,13.36.64,19.65-2.27,15.11-7,32.58-30.92,30.22-52.68-.36-3.3-1.3-6.53-2.03-10.12h61Zm18.65,111.99c-1.41.72-2.56,1.13-3.51,1.81-7.08,5.04-15.03,6.75-23.47,5.46-6.59-1.01-12.04-4.15-14.53-10.85-1.72-4.62-.39-7.35,4.26-9.06,3.4-1.24,6.89-2.24,10.22-3.62,5.06-2.09,8.97-5.51,10.48-10.96,1.19-4.26,1.03-8.56-2.23-11.92-2.88-2.97-5.78.05-8.65.58-7.18,1.34-14.3,3.28-21.53,3.96-8.2.76-15.94-2.13-23.6-4.9-4.48-1.63-7.04,0-8.07,4.66-1.61,7.33,1.9,14.17,9.64,17.93,3.22,1.56,6.81,2.36,10.23,3.54,5.18,1.79,6.9,5.59,4.79,10.62-1.79,4.28-5.03,7.08-9.25,8.76-7.96,3.19-15.83,2.7-23.49-1-3-1.45-5.85-3.24-9.22-5.13-.2,1.56-.47,2.74-.48,3.92-.05,7.76,5.23,13.94,14.47,16.28,12.87,3.25,24.35-.15,34.72-7.95,2.72,1.7,5.34,3.66,8.22,5.08,11.33,5.57,22.81,6.12,34.08-.04,6.52-3.56,8.56-8.86,6.91-17.19Z"/>
      <path class="cls-1" d="m159.61,204.09c14.16-30.13,37.53-45.22,69.75-47.4.11-.34.22-.67.33-1.01-3.83-1.29-7.62-2.76-11.51-3.81-3.92-1.06-7.95-1.71-11.93-2.55,7.07-9.11,31.97-11.47,46.93-4.19-.03-5.11-2.4-9.08-5.22-13.66h16.78c-1.59,4.41-3.12,8.65-5.04,13.95,17.92-9.38,33.43-4.77,48.63,3.53-8.07,1.97-16.28,3.01-24.52,7.83,33.33,1.84,55.99,17.72,70.45,47.3h-194.65Z"/>
      <path class="cls-1" d="m297.62,298.22c5.24,5.47,9.77,6.99,13.55,4.33,6.91-4.85,2.68-9.88-.41-14.83.2-.32.39-.63.59-.95,1.71.44,3.64.5,5.09,1.37,4.68,2.81,6.38,8.75,4.34,14.16-1.94,5.16-7.47,8.51-12.77,7.75-5.84-.84-9.83-5.24-10.39-11.84Z"/>
      <path class="cls-1" d="m217.01,298.35c.06,6.72-4.81,11.74-11.73,11.86-6.88.11-12.37-5.08-12.71-12.04-.29-6,3.86-10.94,10.1-11.28-.41,1.5-.51,2.98-1.18,4.12-2.76,4.69-2.86,7.73-.09,10.47,2.94,2.91,7.21,3.25,11.36.64,1.62-1.02,2.91-2.56,4.24-3.76Z"/>
      <path d="m306.06,387.35c1.64,8.33-.39,13.62-6.91,17.19-11.27,6.16-22.75,5.61-34.08.04-2.88-1.42-5.5-3.38-8.22-5.08-10.37,7.8-21.85,11.21-34.72,7.95-9.23-2.34-14.51-8.52-14.47-16.28,0-1.18.28-2.37.48-3.92,3.37,1.89,6.22,3.68,9.22,5.13,7.65,3.7,15.52,4.19,23.49,1,4.22-1.69,7.47-4.49,9.25-8.76,2.1-5.03.38-8.83-4.79-10.62-3.41-1.18-7-1.98-10.23-3.54-7.74-3.76-11.25-10.6-9.64-17.93,1.03-4.66,3.58-6.28,8.07-4.66,7.65,2.77,15.4,5.67,23.6,4.9,7.24-.67,14.35-2.61,21.53-3.96,2.87-.54,5.76-3.56,8.65-.58,3.26,3.36,3.42,7.66,2.23,11.92-1.52,5.45-5.42,8.87-10.48,10.96-3.34,1.38-6.83,2.38-10.22,3.62-4.65,1.7-5.99,4.44-4.26,9.06,2.5,6.7,7.95,9.84,14.53,10.85,8.44,1.29,16.38-.42,23.47-5.46.95-.68,2.1-1.09,3.51-1.81Z"/>
    </g>
  </g>
</svg>